# xmcd
#
# Track frame offsets: 
#        150
#        19333
#        40753
#        59258
#        80980
#        106518
#        123853
#        149533
#        167765
#        190328
#        210963
#        235110
#
# Disc length: 3341 seconds
#
# Revision: 3
# Processed by: cddbd v1.5.2PL0 Copyright (c) Steve Scherf et al.
# Submitted via: ExactAudioCopy v1.0b3
#
DISCID=9d0d0b0c
DTITLE=Che Linh, Thanh Tuyen - Duong Xua Em Di
DYEAR=1989
DGENRE=Soul
TTITLE0=Con duong xua em di
TTITLE1=Thanh Tuyen - Dau chan ky niem
TTITLE2=Doan cuoi tinh yeu
TTITLE3=Che Linh - Dem buon tinh le
TTITLE4=Tinh lo
TTITLE5=Thanh Tuyen - Noi buon dem dong
TTITLE6=Neu chung minnh cach tro
TTITLE7=Che Linh - Ai cho toi tinh yeu
TTITLE8=Tinh ngheo
TTITLE9=Thanh Tuyen - Duyen kep
TTITLE10=Tinh bo vo
TTITLE11=Che Linh - Ke o mien xa
EXTD=
EXTT0=
EXTT1=
EXTT2=
EXTT3=
EXTT4=
EXTT5=
EXTT6=
EXTT7=
EXTT8=
EXTT9=
EXTT10=
EXTT11=
PLAYORDER=
